<svg width="26" height="26" viewBox="0 0 26 26" fill="none" xmlns="http://www.w3.org/2000/svg">
<path fill-rule="evenodd" clip-rule="evenodd" d="M14.9453 5.5V10.0556H19.5009V5.5H14.9453ZM14.3898 4C13.8682 4 13.4453 4.42284 13.4453 4.94444V10.6111C13.4453 11.1327 13.8682 11.5556 14.3898 11.5556H20.0564C20.578 11.5556 21.0009 11.1327 21.0009 10.6111V4.94444C21.0009 4.42284 20.578 4 20.0564 4H14.3898Z" fill="#0068FF"/>
<path fill-rule="evenodd" clip-rule="evenodd" d="M5.5 5.5V10.0556H10.0556V5.5H5.5ZM5.5 14.9444V19.5H10.0556V14.9444H5.5ZM14.9444 14.9444V19.5H19.5V14.9444H14.9444ZM4 4.94444C4 4.42284 4.42284 4 4.94444 4H10.6111C11.1327 4 11.5556 4.42284 11.5556 4.94444V10.6111C11.5556 11.1327 11.1327 11.5556 10.6111 11.5556H4.94444C4.42284 11.5556 4 11.1327 4 10.6111V4.94444ZM4 14.3889C4 13.8673 4.42284 13.4444 4.94444 13.4444H10.6111C11.1327 13.4444 11.5556 13.8673 11.5556 14.3889V20.0556C11.5556 20.5772 11.1327 21 10.6111 21H4.94444C4.42284 21 4 20.5772 4 20.0556V14.3889ZM14.3889 13.4444C13.8673 13.4444 13.4444 13.8673 13.4444 14.3889V20.0556C13.4444 20.5772 13.8673 21 14.3889 21H20.0556C20.5772 21 21 20.5772 21 20.0556V14.3889C21 13.8673 20.5772 13.4444 20.0556 13.4444H14.3889Z" fill="#303236"/>
</svg>
